<?xml version="1.0" encoding="UTF-8"?>
<!DOCTYPE svg PUBLIC "-//W3C//DTD SVG 1.1//EN" "http://www.w3.org/Graphics/SVG/1.1/DTD/svg11.dtd">
<!-- Creator: CorelDRAW X5 -->
<svg xmlns="http://www.w3.org/2000/svg" xml:space="preserve" width="16.9332mm" height="16.9332mm" style="shape-rendering:geometricPrecision; text-rendering:geometricPrecision; image-rendering:optimizeQuality; fill-rule:evenodd; clip-rule:evenodd"
viewBox="0 0 16.9332 16.9332"
 xmlns:xlink="http://www.w3.org/1999/xlink">
 <defs>
  <style type="text/css">
   <![CDATA[
    .fil1 {fill:#434242}
    .fil0 {fill:#EF7F1A}
    .fil3 {fill:#434242;fill-rule:nonzero}
    .fil2 {fill:#EF7F1A;fill-rule:nonzero}
   ]]>
  </style>
 </defs>
 <g id="Слой_x0020_1">
  <metadata id="CorelCorpID_0Corel-Layer"/>
  <g id="_334997400">
   <path id="_334998120" class="fil0" d="M8.6308 8.1675c-0.0066,0.0567 -0.8661,0.1216 -0.8846,-0.1007 -0.0356,-0.4281 -0.0073,-0.8943 -0.0125,-1.3182 -0.0039,-0.3113 -2.1062,-2.1876 -1.6736,-2.6107 0.3669,-0.3589 0.7765,-0.2048 1.1204,0.3342l0.9753 1.2748c0.6756,-0.8714 0.251,-0.1817 0.8048,-1.2219 0.1785,-0.3355 0.8213,-0.1777 0.9343,0.1263 0.2762,0.7432 -1.2659,1.4952 -1.2659,2.1764 0,0.5604 0.0791,0.677 0.0018,1.3398z"/>
   <path id="_334998024" class="fil1" d="M6.2657 13.1385l4.472 -0.0025 -0.0053 -0.7382 -3.8438 0.1719 -0.0583 -0.317 2.9804 -0.1398 0.0383 -0.57 -2.8184 0.1305 -0.0779 -0.3028 3.096 -0.2538 0.1176 -0.6297 -3.3338 0.2495 -0.03 -0.342 4.451 -0.5452c0.16,-0.5316 0.3309,-0.9189 0.5518,-1.5268 1.5107,-4.1552 1.7839,-4.6213 0.5634,-6.3161 -1.2043,-1.6725 -4.1381,-1.6409 -6.2706,-1.4539 -2.2464,0.1969 -2.7087,1.6076 -2.7112,1.9943l-0.0004 0.0529 1.4221 0.0054 0.272 -0.3148c0.2229,-0.2578 1.5146,-0.3518 3.2335,-0.2533 1.2278,0.0704 3.4044,0.474 3.2118,2.0928 -0.3952,2.8329 -0.238,1.1771 -1.1362,3.5869 -0.5962,1.5997 0.4118,1.394 -2.1279,1.4603 -0.5162,0.0135 -1.2409,0.0982 -1.5748,-0.1496 -0.3802,-1.3506 -0.1106,-0.3663 -0.2922,-0.9438 -0.143,-0.4549 -0.7245,-1.4026 -1.118,-2.3165 -0.2524,-0.5862 -0.4447,-1.6478 -0.4606,-2.19l-0.0124 -0.4189 -1.4393 0.0013c-0.0747,0 0.3919,2.3737 1.0124,3.969 0.4994,1.2842 0.8431,1.1126 1.3172,2.8842l0.5716 3.1257z"/>
   <path id="_334997928" class="fil2" d="M15.8116 14.7168c-0.0004,-0.0837 -0.0171,-0.1643 -0.0497,-0.2421 -0.033,-0.0777 -0.0783,-0.1479 -0.1362,-0.2097 -0.0584,-0.0622 -0.1258,-0.1113 -0.2025,-0.1477 -0.0761,-0.0364 -0.1588,-0.0552 -0.2471,-0.0558l-1.9065 0 0 0.6553 1.7278 0 0 0.1358 -1.7278 0.5925 0 0.9599 2.4825 0 0 -0.5957 -1.8006 0 1.3538 -0.427c0.1185,-0.037 0.2157,-0.0856 0.29,-0.1447 0.0746,-0.059 0.1298,-0.1318 0.1644,-0.2173 0.0348,-0.0854 0.0525,-0.187 0.0519,-0.3035z"/>
   <polygon id="_334997832" class="fil3" points="12.5845,16.405 12.5845,15.7496 10.8567,15.7496 10.8567,15.5511 11.949,15.5511 11.949,14.9156 10.0026,14.9156 10.0026,16.405 "/>
   <polygon id="_334997736" class="fil3" points="12.5845,14.7168 12.5845,14.0615 10.0026,14.0615 10.0026,14.7168 "/>
   <polygon id="_334997640" class="fil3" points="9.6717,16.405 9.6717,15.7099 8.5728,15.7099 8.5728,14.0615 7.7187,14.0615 7.7187,16.405 "/>
   <path id="_334997544" class="fil3" d="M7.3018 15.7496l0 -0.834 -1.7113 0 0 0.6355 0.8573 0 0 0.1985 -1.0559 0 0 -1.0328 1.804 0 0 -0.6553 -2.0489 0c-0.1336,0.0006 -0.2455,0.026 -0.336,0.0773 -0.0904,0.0513 -0.1584,0.1252 -0.2041,0.2228 -0.0457,0.0976 -0.069,0.2157 -0.069,0.3552l0 1.0328c0.0006,0.0877 0.0155,0.1704 0.0464,0.2489 0.0303,0.0787 0.0739,0.1483 0.1313,0.2089 0.0569,0.0613 0.1258,0.1088 0.2063,0.1441 0.0806,0.0348 0.171,0.0529 0.2714,0.0535l1.453 0c0.1006,-0.0006 0.191,-0.0187 0.2715,-0.0535 0.0805,-0.0353 0.1495,-0.0828 0.2064,-0.1441 0.0574,-0.0606 0.1009,-0.1302 0.1318,-0.2089 0.0304,-0.0785 0.0458,-0.1612 0.0458,-0.2489z"/>
   <path id="_334997472" class="fil3" d="M4.1376 15.7496l0 -1.0328c0,-0.1395 -0.0233,-0.2576 -0.069,-0.3552 -0.0459,-0.0976 -0.1137,-0.1715 -0.2041,-0.2228 -0.0905,-0.0513 -0.2026,-0.0767 -0.336,-0.0773l-2.1549 0 0 0.6553 1.9099 0 0 1.0328 -1.0559 0 0 -0.834 -0.854 0 0 1.4894 2.1085 0c0.1005,-0.0006 0.1909,-0.0187 0.2714,-0.0535 0.0806,-0.0353 0.1495,-0.0828 0.2064,-0.1441 0.0574,-0.0606 0.1009,-0.1302 0.1318,-0.2089 0.0304,-0.0785 0.0459,-0.1612 0.0459,-0.2489z"/>
  </g>
 </g>
</svg>
